{"glyphs":{"\u0000":{"ha":0,"x_min":0,"x_max":0,"o":""},"\r":{"ha":347,"x_min":0,"x_max":0,"o":""}," ":{"ha":333,"x_min":0,"x_max":0,"o":""},"o":{"ha":350,"x_min":0,"x_max":0,"o":"m 28 206 b 175 -10 28 22 92 -10 b 322 206 258 -10 322 22 l 322 493 b 175 704 322 676 258 704 b 28 493 92 704 28 676 z m 142 492 b 175 593 142 574 151 593 b 208 492 199 593 208 574 l 208 207 b 175 101 208 115 199 101 b 142 207 151 101 142 115 z "},"h":{"ha":344,"x_min":0,"x_max":0,"o":"m 317 0 l 317 507 b 208 704 317 690 264 704 b 139 679 190 704 163 699 l 139 1014 l 28 1014 l 28 0 l 139 0 l 139 567 b 174 593 147 588 160 593 b 206 492 197 593 206 574 l 206 0 z "},"n":{"ha":343,"x_min":0,"x_max":0,"o":"m 315 0 l 315 507 b 207 704 315 690 263 704 b 128 669 186 704 153 696 l 97 694 l 28 694 l 28 0 l 139 0 l 139 569 b 172 593 147 588 160 593 b 204 492 196 593 204 574 l 204 0 z "},"i":{"ha":189,"x_min":0,"x_max":0,"o":"m 28 840 l 161 840 l 161 972 l 28 972 z m 39 0 l 150 0 l 150 694 l 39 694 z "},"d":{"ha":347,"x_min":0,"x_max":0,"o":"m 319 0 l 319 1014 l 208 1014 l 208 679 b 139 704 185 699 157 704 b 28 507 83 704 28 690 l 28 188 b 143 -10 28 4 88 -10 b 219 25 164 -10 194 -1 l 250 0 z m 208 121 b 178 101 201 104 190 101 b 142 203 154 101 142 111 l 142 492 b 174 593 142 574 150 593 b 208 567 188 593 200 588 z "},"e":{"ha":356,"x_min":0,"x_max":0,"o":"m 214 189 b 178 101 213 114 200 101 b 142 207 154 101 142 115 l 142 268 l 322 268 l 322 489 b 175 704 322 672 258 704 b 28 489 92 704 28 672 l 28 206 b 178 -10 28 22 94 -10 b 328 189 258 -10 324 21 z m 142 488 b 175 593 142 569 151 593 b 208 488 199 593 208 569 l 208 379 l 142 379 z "},"s":{"ha":354,"x_min":0,"x_max":0,"o":"m 26 504 b 221 219 26 324 221 347 l 221 181 b 176 101 221 125 199 101 b 132 222 160 101 132 125 l 21 222 b 176 -10 21 35 92 -10 b 332 181 274 -10 332 35 l 332 219 b 138 504 332 414 138 393 l 138 542 b 167 593 138 569 144 593 b 200 514 182 593 200 576 l 311 514 b 171 704 311 672 251 704 b 26 542 74 704 26 660 z "},"c":{"ha":328,"x_min":0,"x_max":0,"o":"m 203 189 b 172 101 204 114 194 101 b 142 207 149 101 142 115 l 142 488 b 168 593 142 569 144 593 b 193 501 190 593 196 572 l 304 501 b 168 704 306 674 250 704 b 28 489 85 704 28 672 l 28 206 b 172 -10 28 22 89 -10 b 314 189 253 -10 313 21 z "},"a":{"ha":349,"x_min":0,"x_max":0,"o":"m 210 489 l 210 389 b 140 426 197 411 179 426 b 28 247 75 426 28 394 l 28 172 b 140 -10 28 25 75 -10 b 210 32 181 -10 197 8 l 251 0 l 321 0 l 321 489 b 176 704 321 672 260 704 b 35 506 96 704 36 674 l 146 506 b 176 593 144 581 154 593 b 210 489 200 593 210 581 z m 210 99 b 181 82 203 88 194 82 b 139 192 160 82 139 94 l 139 228 b 181 335 139 325 160 335 b 210 319 194 335 203 331 z "},"O":{"ha":383,"x_min":0,"x_max":0,"o":"m 28 250 b 192 -10 28 35 76 -10 b 356 250 307 -10 356 35 l 356 722 b 192 982 356 938 307 982 b 28 722 76 982 28 938 z m 146 722 b 192 868 146 846 158 868 b 238 722 225 868 238 846 l 238 250 b 192 104 238 126 225 104 b 146 250 158 104 146 126 z "},"H":{"ha":385,"x_min":0,"x_max":0,"o":"m 28 0 l 146 0 l 146 514 l 239 514 l 239 0 l 357 0 l 357 972 l 239 972 l 239 625 l 146 625 l 146 972 l 28 972 z "},"N":{"ha":385,"x_min":0,"x_max":0,"o":"m 28 0 l 146 0 l 125 599 l 183 332 l 253 0 l 357 0 l 357 972 l 239 972 l 260 374 l 199 640 l 132 972 l 28 972 z "},"E":{"ha":299,"x_min":0,"x_max":0,"o":"m 28 0 l 271 0 l 271 111 l 146 111 l 146 514 l 236 514 l 236 625 l 146 625 l 146 861 l 257 861 l 257 972 l 28 972 z "},"I":{"ha":174,"x_min":0,"x_max":0,"o":"m 28 0 l 146 0 l 146 972 l 28 972 z "},"D":{"ha":374,"x_min":0,"x_max":0,"o":"m 146 0 b 346 288 292 0 346 38 l 346 694 b 144 972 346 943 278 972 l 28 972 l 28 0 z m 146 861 b 228 694 199 861 228 842 l 228 288 b 146 111 228 140 207 111 z "},"A":{"ha":399,"x_min":0,"x_max":0,"o":"m 28 0 l 146 0 l 161 200 l 238 200 l 253 0 l 371 0 l 258 972 l 140 972 z m 169 311 l 189 568 l 200 763 l 211 568 l 231 311 z "},"C":{"ha":365,"x_min":0,"x_max":0,"o":"m 224 231 b 183 104 224 125 217 104 b 143 250 150 104 143 122 l 143 722 b 175 868 143 842 150 868 b 206 742 200 868 206 842 l 325 742 b 179 982 315 940 274 982 b 28 722 82 982 28 939 l 28 250 b 175 -10 28 40 60 -8 b 338 231 276 -11 328 33 z "},"S":{"ha":376,"x_min":0,"x_max":0,"o":"m 43 694 b 229 319 43 476 226 469 l 231 250 b 193 104 233 125 215 104 b 147 286 174 104 147 129 l 28 286 b 193 -10 33 32 100 -10 b 349 250 290 -10 349 35 l 349 319 b 161 694 349 538 161 546 l 161 764 b 188 868 161 847 165 868 b 219 714 207 868 218 843 l 339 714 b 188 982 326 940 281 982 b 43 764 90 982 43 938 z "},"z":{"ha":342,"x_min":0,"x_max":0,"o":"m 304 569 l 304 694 l 51 694 l 51 583 l 204 583 l 24 125 l 24 0 l 318 0 l 318 111 l 138 111 z "},"b":{"ha":347,"x_min":0,"x_max":0,"o":"m 28 0 l 97 0 l 128 25 b 204 -10 153 -1 183 -10 b 319 188 260 -10 319 4 l 319 507 b 208 704 319 690 264 704 b 139 679 190 704 163 699 l 139 1014 l 28 1014 z m 139 567 b 174 593 147 588 160 593 b 206 492 197 593 206 574 l 206 203 b 169 101 206 111 193 101 b 139 121 157 101 146 104 z "},"f":{"ha":271,"x_min":0,"x_max":0,"o":"m 174 765 b 242 871 174 847 176 871 l 242 982 b 63 765 103 982 63 976 l 63 694 l 14 667 l 14 583 l 63 583 l 63 0 l 174 0 l 174 583 l 243 583 l 243 694 l 174 694 z "},"g":{"ha":347,"x_min":0,"x_max":0,"o":"m 208 -31 b 178 -135 208 -125 201 -135 b 147 -94 156 -135 146 -115 l 36 -94 b 178 -246 38 -218 97 -246 b 319 -31 261 -246 319 -218 l 319 694 l 250 694 l 218 671 b 143 704 194 697 164 704 b 28 507 88 704 28 690 l 28 188 b 139 -10 28 4 83 -10 b 208 15 157 -10 185 -4 z m 208 128 b 174 101 200 107 188 101 b 142 203 150 101 142 121 l 142 492 b 178 588 142 583 154 588 b 208 568 190 588 201 585 z "},"j":{"ha":181,"x_min":0,"x_max":0,"o":"m 19 840 l 153 840 l 153 972 l 19 972 z m 31 -31 b 0 -135 31 -125 24 -135 b -31 -94 -22 -135 -32 -115 l -142 -94 b 0 -246 -140 -218 -81 -246 b 142 -31 83 -246 142 -218 l 142 694 l 31 694 z "},"k":{"ha":386,"x_min":0,"x_max":0,"o":"m 338 694 l 218 694 l 139 453 l 139 1014 l 28 1014 l 28 0 l 139 0 l 139 260 l 242 0 l 365 0 l 214 347 z "},"l":{"ha":167,"x_min":0,"x_max":0,"o":"m 28 0 l 139 0 l 139 1014 l 28 1014 z "},"m":{"ha":496,"x_min":0,"x_max":0,"o":"m 304 0 l 304 507 b 301 574 304 532 303 554 b 329 593 307 589 318 593 b 354 492 353 593 354 574 l 354 0 l 468 0 l 468 507 b 364 704 468 690 419 704 b 281 661 340 704 306 696 b 200 704 261 700 232 704 b 126 671 179 704 150 696 l 97 694 l 28 694 l 28 0 l 139 0 l 139 576 b 165 593 144 589 154 593 b 190 492 189 593 190 574 l 190 0 z "},"p":{"ha":347,"x_min":0,"x_max":0,"o":"m 28 694 l 28 -246 l 139 -246 l 139 15 b 208 -10 163 -4 190 -10 b 319 188 264 -10 319 4 l 319 507 b 204 704 319 690 260 704 b 128 669 183 704 153 696 l 97 694 z m 139 574 b 169 593 146 590 157 593 b 206 492 193 593 206 583 l 206 203 b 174 101 206 121 197 101 b 139 128 160 101 147 107 z "},"q":{"ha":347,"x_min":0,"x_max":0,"o":"m 319 694 l 250 694 l 219 669 b 143 704 194 696 164 704 b 28 507 88 704 28 690 l 28 188 b 139 -10 28 4 83 -10 b 208 15 157 -10 185 -4 l 208 -246 l 319 -246 z m 208 128 b 174 101 200 107 188 101 b 142 203 150 101 142 121 l 142 492 b 178 593 142 583 154 593 b 208 574 190 593 201 590 z "},"r":{"ha":282,"x_min":0,"x_max":0,"o":"m 271 704 b 139 661 217 704 171 700 l 97 694 l 28 694 l 28 0 l 139 0 l 139 497 b 271 597 139 594 211 604 z "},"t":{"ha":275,"x_min":0,"x_max":0,"o":"m 171 203 l 171 583 l 240 583 l 240 694 l 171 694 l 171 846 l 60 846 l 60 694 l 11 667 l 11 583 l 60 583 l 60 188 b 254 -10 60 21 99 -10 l 254 101 b 171 203 189 101 171 131 z "},"u":{"ha":343,"x_min":0,"x_max":0,"o":"m 28 694 l 28 188 b 136 -10 28 4 81 -10 b 215 25 157 -10 190 -1 l 246 0 l 315 0 l 315 694 l 204 694 l 204 125 b 171 101 196 107 183 101 b 139 203 147 101 139 121 l 139 694 z "},"v":{"ha":354,"x_min":0,"x_max":0,"o":"m 340 694 l 222 694 l 185 343 l 178 181 l 171 343 l 132 694 l 14 694 l 118 0 l 239 0 z "},"w":{"ha":578,"x_min":0,"x_max":0,"o":"m 564 694 l 450 694 l 414 335 l 408 249 l 399 335 l 339 694 l 239 694 l 179 335 l 171 249 l 165 335 l 128 694 l 14 694 l 104 0 l 224 0 l 282 389 l 289 471 l 296 389 l 357 0 l 476 0 z "},"x":{"ha":394,"x_min":0,"x_max":0,"o":"m 354 694 l 243 694 l 204 506 l 197 461 l 190 506 l 150 694 l 39 694 l 114 371 l 25 0 l 144 0 l 188 190 l 197 269 l 207 190 l 249 0 l 368 0 l 281 371 z "},"y":{"ha":343,"x_min":0,"x_max":0,"o":"m 28 694 l 28 188 b 136 -10 28 4 81 -10 b 204 14 154 -10 181 -4 l 204 -32 b 174 -136 204 -126 197 -136 b 143 -96 151 -136 142 -117 l 32 -96 b 174 -247 33 -219 93 -247 b 315 -32 257 -247 315 -219 l 315 694 l 204 694 l 204 125 b 171 101 196 107 183 101 b 139 203 147 101 139 121 l 139 694 z "},"B":{"ha":389,"x_min":0,"x_max":0,"o":"m 28 0 l 158 0 b 358 236 289 0 357 49 l 360 403 b 208 579 361 497 324 569 b 343 708 304 586 342 653 l 344 793 b 146 972 346 917 276 972 l 28 972 z m 146 861 b 226 793 211 861 226 832 l 226 708 b 146 611 226 658 211 611 z m 146 528 b 240 417 215 528 240 493 l 240 236 b 146 111 240 146 215 111 z "},"F":{"ha":278,"x_min":0,"x_max":0,"o":"m 28 0 l 146 0 l 146 514 l 229 514 l 229 625 l 146 625 l 146 861 l 250 861 l 250 972 l 28 972 z "},"G":{"ha":372,"x_min":0,"x_max":0,"o":"m 344 0 l 344 625 l 175 625 l 175 514 l 233 514 l 233 250 b 188 100 233 122 218 100 b 146 250 158 100 146 122 l 146 722 b 178 868 146 836 149 868 b 208 742 204 868 208 815 l 328 742 b 182 982 318 940 281 982 b 28 722 85 982 28 938 l 28 250 b 168 -10 28 39 74 -10 b 254 50 211 -10 238 6 l 268 0 z "},"J":{"ha":188,"x_min":0,"x_max":0,"o":"m 42 56 b -39 -33 42 -19 29 -33 l -39 -144 b 160 56 93 -144 160 -101 l 160 972 l 42 972 z "},"K":{"ha":418,"x_min":0,"x_max":0,"o":"m 28 0 l 146 0 l 146 403 l 147 403 l 265 0 l 390 0 l 236 508 l 369 972 l 244 972 l 146 611 l 146 972 l 28 972 z "},"L":{"ha":299,"x_min":0,"x_max":0,"o":"m 28 0 l 271 0 l 271 111 l 146 111 l 146 972 l 28 972 z "},"M":{"ha":560,"x_min":0,"x_max":0,"o":"m 28 0 l 146 0 l 142 649 l 221 139 l 339 139 l 418 635 l 414 0 l 532 0 l 511 972 l 393 972 l 328 625 l 281 363 l 233 625 l 167 972 l 49 972 z "},"P":{"ha":372,"x_min":0,"x_max":0,"o":"m 28 0 l 146 0 l 146 431 b 344 708 276 431 344 483 b 146 972 344 933 276 972 l 28 972 z m 146 861 b 226 708 221 861 226 828 b 146 542 226 589 221 542 z "},"Q":{"ha":383,"x_min":0,"x_max":0,"o":"m 28 250 b 136 -4 28 74 61 13 b 331 -137 139 -101 201 -137 l 331 -33 b 250 -4 267 -33 251 -21 b 356 250 324 14 356 75 l 356 722 b 192 982 356 938 307 982 b 28 722 76 982 28 938 z m 146 722 b 192 868 146 836 158 868 b 238 722 225 868 238 836 l 238 250 b 192 104 238 122 225 104 b 146 250 158 104 146 122 z "},"R":{"ha":388,"x_min":0,"x_max":0,"o":"m 358 0 l 360 403 b 208 579 360 497 324 569 b 344 750 318 588 344 672 b 146 972 344 933 276 972 l 28 972 l 28 0 l 146 0 l 146 514 b 240 417 215 514 240 493 l 240 0 z m 146 861 b 226 750 221 861 226 828 b 146 625 226 672 221 625 z "},"T":{"ha":396,"x_min":0,"x_max":0,"o":"m 139 0 l 257 0 l 257 861 l 382 861 l 382 972 l 14 972 l 14 861 l 139 861 z "},"U":{"ha":385,"x_min":0,"x_max":0,"o":"m 28 249 b 193 -10 28 64 61 -10 b 357 249 325 -10 357 64 l 357 972 l 239 972 l 239 249 b 193 104 239 154 233 104 b 146 249 153 104 146 154 l 146 972 l 28 972 z "},"V":{"ha":413,"x_min":0,"x_max":0,"o":"m 28 972 l 147 0 l 265 0 l 385 972 l 267 972 l 211 432 l 207 279 l 203 432 l 146 972 z "},"W":{"ha":560,"x_min":0,"x_max":0,"o":"m 28 972 l 63 0 l 181 0 l 254 486 l 281 763 l 306 486 l 379 0 l 497 0 l 532 972 l 414 972 l 406 486 l 411 365 l 393 486 l 339 972 l 221 972 l 168 486 l 149 351 l 154 486 l 146 972 z "},"X":{"ha":433,"x_min":0,"x_max":0,"o":"m 306 486 l 392 972 l 271 972 l 229 736 l 218 633 l 210 736 l 164 972 l 43 972 l 136 486 l 28 0 l 150 0 l 201 236 l 218 339 l 236 236 l 283 0 l 406 0 z "},"Y":{"ha":413,"x_min":0,"x_max":0,"o":"m 265 342 l 385 972 l 263 972 l 218 717 l 207 600 l 196 717 l 150 972 l 28 972 l 147 342 l 147 0 l 265 0 z "},"Z":{"ha":385,"x_min":0,"x_max":0,"o":"m 28 160 l 28 0 l 357 0 l 357 111 l 136 111 l 343 813 l 343 972 l 56 972 l 56 861 l 235 861 z "}}}
